<?xml version="1.0" encoding="iso-8859-1"?>
<!-- Uploaded to: SVG Repo, www.svgrepo.com, Generator: SVG Repo Mixer Tools -->
<svg fill="#ffffff" version="1.1" id="Layer_1" xmlns="http://www.w3.org/2000/svg" xmlns:xlink="http://www.w3.org/1999/xlink" 
	 viewBox="0 0 512 512" xml:space="preserve">
<g>
	<g>
		<path d="M384.73,44.024H127.27C57.094,44.024,0,101.117,0,171.293v296.682h384.73c70.176,0,127.27-57.093,127.27-127.269V171.293
			C512,101.117,454.906,44.024,384.73,44.024z M496.268,340.707c0,61.502-50.035,111.537-111.538,111.537H15.732V171.293
			c0-61.502,50.035-111.537,111.538-111.537h257.46c61.503,0,111.538,50.035,111.538,111.537V340.707z"/>
	</g>
</g>
<g>
	<g>
		<path d="M64.035,92.05v319.896h383.931V92.05H64.035z M128.048,396.215H79.766V107.782h48.282V396.215z M368.22,396.215H143.78
			V107.782h224.44V396.215z M432.234,396.215h-48.282V107.782h48.282V396.215z"/>
	</g>
</g>
<g>
	<g>
		<rect x="95.534" y="124.376" width="16.781" height="15.732"/>
	</g>
</g>
<g>
	<g>
		<rect x="95.534" y="171.571" width="16.781" height="15.732"/>
	</g>
</g>
<g>
	<g>
		<rect x="95.534" y="219.815" width="16.781" height="15.732"/>
	</g>
</g>
<g>
	<g>
		<rect x="95.534" y="268.06" width="16.781" height="15.732"/>
	</g>
</g>
<g>
	<g>
		<rect x="95.534" y="316.304" width="16.781" height="15.732"/>
	</g>
</g>
<g>
	<g>
		<rect x="95.534" y="364.548" width="16.781" height="15.732"/>
	</g>
</g>
<g>
	<g>
		<rect x="399.681" y="124.376" width="16.781" height="15.732"/>
	</g>
</g>
<g>
	<g>
		<rect x="399.681" y="171.571" width="16.781" height="15.732"/>
	</g>
</g>
<g>
	<g>
		<rect x="399.681" y="219.815" width="16.781" height="15.732"/>
	</g>
</g>
<g>
	<g>
		<rect x="399.681" y="268.06" width="16.781" height="15.732"/>
	</g>
</g>
<g>
	<g>
		<rect x="399.681" y="316.304" width="16.781" height="15.732"/>
	</g>
</g>
<g>
	<g>
		<rect x="399.681" y="364.548" width="16.781" height="15.732"/>
	</g>
</g>
<g>
	<g>
		<path d="M313.07,240.095l-102.322-47.476c-4.085-1.895-8.789-1.581-12.583,0.842c-3.796,2.424-6.061,6.558-6.061,11.06v94.954
			c0,4.502,2.265,8.637,6.06,11.059c2.152,1.374,4.596,2.07,7.054,2.07c1.876,0,3.762-0.406,5.531-1.227l102.319-47.476
			c4.688-2.175,7.6-6.735,7.6-11.903C320.669,246.831,317.758,242.27,313.07,240.095z M207.836,295.388V208.61l93.51,43.389
			L207.836,295.388z"/>
	</g>
</g>
<g>
	<g>
		<path d="M152.17,115.988v271.635H359.83V115.988H152.17z M344.098,371.891H167.902V131.72h176.196V371.891z"/>
	</g>
</g>
<g>
	<g>
		<rect x="183.632" y="140.108" width="144.732" height="15.732"/>
	</g>
</g>
<g>
	<g>
		<rect x="183.632" y="347.767" width="144.732" height="15.732"/>
	</g>
</g>
</svg>